<?xml version="1.0" encoding="UTF-8"?>
<svg version="1.1" xmlns="http://www.w3.org/2000/svg" width="1080" height="1080">
<path d="M0 0 C1.13265793 -0.00630432 2.26531586 -0.01260864 3.43229675 -0.019104 C4.66547134 -0.01505554 5.89864594 -0.01100708 7.16918945 -0.00683594 C8.4403511 -0.00874939 9.71151276 -0.01066284 11.02119446 -0.01263428 C13.72406419 -0.01399876 16.42657572 -0.01128499 19.12939453 -0.00195312 C22.54927019 0.00929316 25.96882675 0.00298058 29.38868999 -0.00909805 C32.69054637 -0.01820252 35.9923241 -0.011758 39.29418945 -0.00683594 C40.50104904 -0.0108844 41.70790863 -0.01493286 42.95133972 -0.019104 C59.59749986 0.07031277 77.64274691 1.36925629 90.56762695 13.04003906 C99.00458515 22.08890852 103.61459529 32.40810103 103.5871582 44.78222656 C103.03055463 56.13209935 100.17436705 63.13814439 93.5949707 72.25878906 C92.9143457 73.22816406 92.2337207 74.19753906 91.5324707 75.19628906 C89.36639951 77.50210679 87.59604402 78.34179444 84.5949707 79.25878906 C86.8123659 81.60209313 89.1683096 83.4381677 91.7824707 85.32128906 C100.85726858 92.34169459 107.84076752 101.74276999 109.5949707 113.25878906 C110.43093967 127.18246886 110.01661795 140.20851787 100.4309082 151.27050781 C99.82504883 151.92664063 99.21918945 152.58277344 98.5949707 153.25878906 C98.07161133 153.88398437 97.54825195 154.50917969 97.0090332 155.15332031 C87.9828852 165.25820307 74.56758744 168.39394949 61.52098465 169.42225647 C56.59944664 169.66535807 51.6809583 169.63056896 46.75512695 169.58691406 C45.21097499 169.58384546 43.66682024 169.58197773 42.12266541 169.58123779 C38.92687976 169.57668989 35.73135394 169.56246362 32.53564453 169.54003906 C28.43329573 169.51139814 24.33114668 169.50078569 20.22870731 169.49635696 C17.05897526 169.49221643 13.8892836 169.48241632 10.71957207 169.47048187 C9.20484169 169.46478216 7.69010748 169.46002247 6.17537117 169.4562149 C4.07696672 169.44938239 1.97872428 169.43577428 -0.11962891 169.41992188 C-1.3126915 169.41309387 -2.50575409 169.40626587 -3.73497009 169.39923096 C-6.4050293 169.25878906 -6.4050293 169.25878906 -7.4050293 168.25878906 C-8.510347 158.22740396 -8.54397474 148.12746867 -8.4909668 138.04785156 C-8.48662084 136.52291955 -8.48259637 134.99798659 -8.47885132 133.47305298 C-8.46587226 129.07278011 -8.44439422 124.67258209 -8.42088318 120.27235413 C-8.40402691 117.06825237 -8.38887107 113.86414528 -8.37390137 110.66003418 C-8.30810835 96.9155242 -8.22263861 83.17124849 -8.11748123 69.42698288 C-8.06180004 62.13442669 -8.01264329 54.84189382 -7.97188628 47.54924333 C-7.9386579 41.71531807 -7.89471109 35.88151025 -7.84696579 30.04768753 C-7.8284477 27.58762537 -7.81333023 25.12753517 -7.80168533 22.66743088 C-7.78494038 19.26853973 -7.75596227 15.86996732 -7.72387695 12.47119141 C-7.72171677 11.45960464 -7.71955658 10.44801788 -7.71733093 9.40577698 C-7.70616745 8.48742569 -7.69500397 7.5690744 -7.6835022 6.62289429 C-7.67797144 5.8234458 -7.67244068 5.02399731 -7.66674232 4.2003231 C-7.04761334 -0.39272298 -3.83327675 0.00610896 0 0 Z M27.5949707 30.25878906 C27.5949707 42.79878906 27.5949707 55.33878906 27.5949707 68.25878906 C46.69831603 69.6880055 46.69831603 69.6880055 63.2199707 61.75878906 C66.81155134 55.22864245 66.12403017 47.53895773 64.9699707 40.38378906 C63.27423433 36.52984276 61.24756903 34.25357873 57.5949707 32.25878906 C51.0210463 30.03927265 44.39564323 30.01059972 37.5324707 30.13378906 C32.6134082 30.19566406 32.6134082 30.19566406 27.5949707 30.25878906 Z M27.5949707 99.25878906 C27.40724073 102.17643363 27.33943976 104.9974972 27.36450195 107.91503906 C27.36496017 108.77311157 27.3654184 109.63118408 27.3658905 110.51525879 C27.36891397 112.33098736 27.37680307 114.14671331 27.38916016 115.96240234 C27.40739671 118.74748893 27.40967 121.5322428 27.40942383 124.31738281 C27.41433975 126.07910445 27.42016839 127.84082382 27.42700195 129.60253906 C27.42811478 130.43901978 27.4292276 131.27550049 27.43037415 132.1373291 C27.35288692 136.33187157 27.35288692 136.33187157 28.5949707 140.25878906 C32.88640227 140.37621405 37.17741344 140.44644902 41.4699707 140.50878906 C43.27594727 140.5590625 43.27594727 140.5590625 45.1184082 140.61035156 C52.51063677 140.69070187 59.20141274 140.3164354 65.5949707 136.25878906 C71.55264543 129.22782588 72.21252402 122.23079013 71.5949707 113.25878906 C70.55538929 108.05134456 67.55424531 104.6841285 63.4777832 101.47753906 C55.99156161 96.63168608 45.79760136 97.16546466 37.1574707 97.07128906 C36.4466333 97.0582373 35.7357959 97.04518555 35.00341797 97.03173828 C30.84295895 96.89097083 30.84295895 96.89097083 27.5949707 99.25878906 Z " fill="#FAF7F1" transform="translate(537.405029296875,445.7412109375)"/>
<path d="M0 0 C0.91510849 -0.0066568 1.83021698 -0.0133136 2.77305603 -0.02017212 C4.70700075 -0.03027083 6.64098012 -0.03499 8.57495117 -0.03466797 C11.49393304 -0.03901277 14.41136617 -0.07528297 17.33007812 -0.11328125 C27.84469032 -0.17729981 36.6133834 0.3862611 46.46484375 4.3359375 C47.95936937 4.84963716 49.45530789 5.35925935 50.953125 5.86328125 C73.28018168 13.96661336 73.28018168 13.96661336 77.46484375 22.3359375 C79.3820889 34.69151737 70.35909706 46.662364 63.421875 56.19921875 C61.22145377 58.60167467 59.47677279 60.0699218 56.46484375 61.3359375 C53.9765625 61.078125 53.9765625 61.078125 51.46484375 59.3359375 C49.43968611 56.52859223 47.86549841 53.53153001 46.27734375 50.4609375 C45.83970703 49.64496094 45.40207031 48.82898438 44.95117188 47.98828125 C43.3890375 45.0643473 41.84063845 42.14543832 40.44458008 39.13818359 C39.16506265 36.78448371 37.89569308 36.37644865 35.46484375 35.3359375 C33.51128573 34.10211138 31.58501702 32.83273271 29.66015625 31.5546875 C20.35879863 26.39094448 7.57558711 27.09774836 -2.67578125 28.8828125 C-5.2354605 29.78124296 -7.25737217 30.85981009 -9.53515625 32.3359375 C-10.55480469 32.98433594 -11.57445312 33.63273437 -12.625 34.30078125 C-26.79768652 43.94938278 -34.42199868 57.70970184 -40.53515625 73.3359375 C-40.93347656 74.23957031 -41.33179688 75.14320313 -41.7421875 76.07421875 C-44.73117901 82.91419558 -46.21154022 90.00968065 -47.53515625 97.3359375 C-47.81746094 98.84220703 -47.81746094 98.84220703 -48.10546875 100.37890625 C-48.75963866 106.4032164 -48.71957316 112.40574386 -48.72265625 118.4609375 C-48.74102539 120.32492187 -48.74102539 120.32492187 -48.75976562 122.2265625 C-48.78760628 140.00746037 -45.69290441 155.15108727 -34.53515625 169.3359375 C-34.06335938 169.99464844 -33.5915625 170.65335938 -33.10546875 171.33203125 C-26.22355116 180.37183825 -14.34020986 183.41370502 -3.53515625 185.0234375 C-2.20372426 185.14960142 -0.86994793 185.25251302 0.46484375 185.3359375 C1.24859375 185.38878906 2.03234375 185.44164062 2.83984375 185.49609375 C19.2030854 186.05614518 35.94138015 181.30151006 49.27734375 171.8046875 C51.84122991 170.08322108 54.45258057 168.65456909 57.21484375 167.2734375 C58.53742188 166.60634766 58.53742188 166.60634766 59.88671875 165.92578125 C62.46484375 165.3359375 62.46484375 165.3359375 65.10546875 166.46484375 C68.1549254 168.88320424 70.04514121 170.79791363 71.08203125 174.59765625 C71.84357287 181.76307059 71.20691392 187.48431831 66.94921875 193.46484375 C65.20840439 195.53108062 63.38893648 197.44008093 61.46484375 199.3359375 C60.71267578 200.12097656 60.71267578 200.12097656 59.9453125 200.921875 C52.05340255 208.47413312 40.51571098 212.54213967 30.46484375 216.3359375 C29.61664063 216.69816406 28.7684375 217.06039062 27.89453125 217.43359375 C24.97421892 218.51814704 22.55497272 218.47966443 19.46484375 218.3359375 C20.86200823 214.14444407 23.81565697 213.05125262 27.46484375 210.9609375 C28.14675781 210.55883057 28.82867187 210.15672363 29.53125 209.74243164 C33.12354296 207.6357086 36.75252573 205.66182149 40.46484375 203.7734375 C45.15753882 201.2445468 48.24225304 197.51183479 51.46484375 193.3359375 C50.51609375 194.1609375 49.56734375 194.9859375 48.58984375 195.8359375 C45.71484375 198.3359375 45.71484375 198.3359375 43.46484375 198.3359375 C43.46484375 198.9959375 43.46484375 199.6559375 43.46484375 200.3359375 C27.37819628 210.18839788 11.6919685 215.75454639 -7.34765625 215.6484375 C-8.39864502 215.64352295 -9.44963379 215.6386084 -10.5324707 215.63354492 C-27.71642386 215.37520934 -44.42326843 210.43038698 -58.53515625 200.3359375 C-58.53515625 199.6759375 -58.53515625 199.0159375 -58.53515625 198.3359375 C-59.09203125 198.0884375 -59.64890625 197.8409375 -60.22265625 197.5859375 C-70.08366869 192.2556605 -76.27998565 181.88949492 -81.53515625 172.3359375 C-82.30859375 170.96501953 -82.30859375 170.96501953 -83.09765625 169.56640625 C-87.26791427 161.7784494 -89.61170118 153.93600102 -91.53515625 145.3359375 C-91.87546875 143.90894531 -91.87546875 143.90894531 -92.22265625 142.453125 C-98.46633949 112.0151692 -91.41917068 77.37852227 -74.53515625 51.5234375 C-73.54484073 50.12071662 -72.54404961 48.7253564 -71.53515625 47.3359375 C-70.52388672 45.87607422 -70.52388672 45.87607422 -69.4921875 44.38671875 C-63.92405675 36.465571 -63.92405675 36.465571 -60.53515625 35.3359375 C-59.83121013 34.02190474 -59.17169967 32.6839118 -58.53515625 31.3359375 C-55.18923484 26.57443395 -51.00598123 22.99942441 -46.53515625 19.3359375 C-45.78878906 18.70558594 -45.04242188 18.07523437 -44.2734375 17.42578125 C-35.67268062 10.63428877 -25.67874689 6.34685807 -15.53515625 2.3359375 C-14.64747559 1.9740332 -13.75979492 1.61212891 -12.84521484 1.23925781 C-8.51293986 0.056973 -4.47138811 0.01145427 0 0 Z " fill="#E7191D" transform="translate(176.53515625,420.6640625)"/>
<path d="M0 0 C1.08946678 -0.0049926 1.08946678 -0.0049926 2.20094299 -0.01008606 C3.74015671 -0.015158 5.27938145 -0.0174943 6.81860352 -0.01733398 C9.17808096 -0.01951891 11.53708986 -0.0376669 13.89648438 -0.05664062 C15.38932131 -0.05957477 16.88216048 -0.06155942 18.375 -0.0625 C19.43756264 -0.07327827 19.43756264 -0.07327827 20.52159119 -0.08427429 C25.52508288 -0.06085462 25.52508288 -0.06085462 27.75390625 2.16796875 C27.94189916 4.84860302 28.00572616 7.42506333 27.98095703 10.10595703 C27.98124908 10.92554901 27.98154114 11.74514099 27.98184204 12.58956909 C27.98044569 15.30591318 27.96487026 18.02198493 27.94921875 20.73828125 C27.9454897 22.61872203 27.94264222 24.49916474 27.94064331 26.37960815 C27.93299832 31.33462873 27.91334244 36.28953249 27.89123535 41.24450684 C27.87079553 46.29840515 27.86164559 51.35232229 27.8515625 56.40625 C27.83009734 66.3268743 27.79595099 76.24741182 27.75390625 86.16796875 C31.10537691 82.86205876 34.08535103 79.58498097 36.87890625 75.79296875 C38.03712891 74.22675781 38.03712891 74.22675781 39.21875 72.62890625 C40.06423516 71.47557777 40.90926706 70.32191691 41.75390625 69.16796875 C42.69261913 67.88925743 43.63142383 66.6106135 44.5703125 65.33203125 C45.97265534 63.42138055 47.37410352 61.51011792 48.77197266 59.59619141 C49.64714831 58.39842764 50.53891652 57.21262356 51.44628906 56.0390625 C52.82909214 54.18239626 52.82909214 54.18239626 53.75683594 51.953125 C55.17547173 49.22915143 56.18129689 47.89076317 58.75390625 46.16796875 C65.06819903 45.15618064 71.25870553 45.41573069 77.62890625 45.66796875 C79.38403392 45.70812296 81.13924931 45.74462037 82.89453125 45.77734375 C87.18316157 45.86524989 91.4675713 46.0031341 95.75390625 46.16796875 C96.94824219 50.79980469 96.94824219 50.79980469 95.19921875 54.11328125 C94.43351563 55.16257812 93.6678125 56.211875 92.87890625 57.29296875 C92.46761475 57.86281494 92.05632324 58.43266113 91.63256836 59.01977539 C88.29486539 63.58899979 84.70794585 67.94193537 81.078125 72.28125 C78.00040468 76.10383036 75.17590681 80.08143264 72.36376953 84.1015625 C69.45205359 88.25164719 66.36730189 92.18508951 63.03125 96.0078125 C61.10309311 99.26857935 60.70306547 101.35099907 60.75390625 105.16796875 C62.3213854 108.47810917 64.43994121 111.30530738 66.62890625 114.23046875 C67.83897577 115.91542116 69.04729889 117.60162908 70.25390625 119.2890625 C70.85203125 120.11519043 71.45015625 120.94131836 72.06640625 121.79248047 C74.38030536 125.04974874 76.51377672 128.40470483 78.62890625 131.79296875 C81.0570163 135.62122986 83.53205598 139.26589762 86.37890625 142.79296875 C89.82979504 147.07046579 92.4961261 151.67917947 95.17578125 156.46875 C96.56915096 158.85196403 98.09282406 160.97089783 99.75390625 163.16796875 C100.50390625 165.29296875 100.50390625 165.29296875 100.75390625 167.16796875 C100.42390625 167.82796875 100.09390625 168.48796875 99.75390625 169.16796875 C94.45215459 169.34154027 89.15206969 169.46827803 83.84814453 169.55249023 C82.04576804 169.58760567 80.24358973 169.63531178 78.44189453 169.69604492 C75.84488016 169.78136925 73.2505081 169.82074203 70.65234375 169.8515625 C69.4519899 169.905756 69.4519899 169.905756 68.22738647 169.96104431 C64.85991151 169.96338596 62.64913629 169.8912447 59.97221375 167.72850037 C58.40817267 165.94802522 57.06046561 164.14362997 55.75390625 162.16796875 C55.20226807 161.35223389 54.65062988 160.53649902 54.08227539 159.69604492 C53.44213501 158.58966675 53.44213501 158.58966675 52.7890625 157.4609375 C52.05937256 156.21727417 52.05937256 156.21727417 51.31494141 154.94848633 C50.8204248 154.09279053 50.3259082 153.23709473 49.81640625 152.35546875 C45.7263787 145.40494273 41.49571765 138.69550048 36.75390625 132.16796875 C35.59837153 130.50801353 34.45226473 128.84144935 33.31640625 127.16796875 C32.57583984 126.08515625 32.57583984 126.08515625 31.8203125 124.98046875 C30.75390625 123.16796875 30.75390625 123.16796875 30.75390625 121.16796875 C29.76390625 121.66296875 29.76390625 121.66296875 28.75390625 122.16796875 C28.42390625 137.34796875 28.09390625 152.52796875 27.75390625 168.16796875 C24.7523777 169.66873302 21.66570615 169.31018467 18.375 169.30078125 C17.28409813 169.30221634 17.28409813 169.30221634 16.17115784 169.30368042 C14.63371697 169.3043611 13.09627324 169.3025146 11.55883789 169.29833984 C9.19736325 169.29298226 6.83607814 169.29829252 4.47460938 169.3046875 C2.98307249 169.30402685 1.49153573 169.30274596 0 169.30078125 C-1.06559898 169.3038176 -1.06559898 169.3038176 -2.15272522 169.30691528 C-7.13113661 169.28292589 -7.13113661 169.28292589 -8.24609375 168.16796875 C-8.34522664 166.01867358 -8.3724175 163.86605757 -8.37307739 161.71447754 C-8.37541738 160.69132438 -8.37541738 160.69132438 -8.37780464 159.64750147 C-8.38181671 157.3450576 -8.37862421 155.04267882 -8.37548828 152.74023438 C-8.37684223 151.09640972 -8.37862213 149.45258537 -8.38079834 147.8087616 C-8.38537343 143.33161621 -8.3835828 138.85449376 -8.38041925 134.37734795 C-8.37789604 129.70261445 -8.38023308 125.02788298 -8.38180542 120.35314941 C-8.38362723 112.5012171 -8.38122051 104.64929417 -8.37646484 96.79736328 C-8.3710222 87.70591876 -8.37278485 78.61449667 -8.37829125 69.52305269 C-8.38282206 61.73199664 -8.38347309 53.94094736 -8.38085258 46.14989042 C-8.37928963 41.49020743 -8.37909654 36.83053499 -8.38238907 32.17085266 C-8.38526731 27.79116574 -8.38329296 23.41150787 -8.37749481 19.03182411 C-8.37616696 17.41968649 -8.37656175 15.80754645 -8.37875748 14.19540977 C-8.38146802 12.00405961 -8.37808907 9.81280401 -8.37307739 7.62145996 C-8.37251185 5.77751774 -8.37251185 5.77751774 -8.37193489 3.89632416 C-8.126638 -1.42194526 -4.33427943 0.00678954 0 0 Z " fill="#FAF7F1" transform="translate(901.24609375,445.83203125)"/>
<path d="M0 0 C1.46953125 1.15822266 1.46953125 1.15822266 2.96875 2.33984375 C15.77884457 12.90185525 20.67154117 26.58605269 22.6875 42.875 C24.20685163 62.88518421 21.94409688 83.83737092 9 100 C1.90021776 107.20252873 -5.42822191 111.84362277 -15 115 C-15.85851562 115.31710937 -16.71703125 115.63421875 -17.6015625 115.9609375 C-31.5948233 120.56899015 -46.62901816 118.66426447 -60 113 C-63.92771781 110.95944601 -67.49539083 108.69849189 -71 106 C-72.49080078 104.8553125 -72.49080078 104.8553125 -74.01171875 103.6875 C-77.14677206 101.03672322 -79.44268293 97.95828226 -81.625 94.5 C-82.20519897 93.587948 -82.20519897 93.587948 -82.79711914 92.6574707 C-86.38931987 86.77095063 -88.4347489 80.70706042 -90 74 C-90.17370117 73.3402417 -90.34740234 72.6804834 -90.52636719 72.00073242 C-94.27938037 56.95690284 -92.94536688 40.57667157 -88 26 C-87.63777344 24.91332031 -87.27554688 23.82664062 -86.90234375 22.70703125 C-83.729275 14.22041686 -78.74192577 6.03788517 -71 1 C-70.34 1 -69.68 1 -69 1 C-69 0.34 -69 -0.32 -69 -1 C-54.18453098 -8.78228289 -54.18453098 -8.78228289 -47 -10 C-46.35546875 -10.11988281 -45.7109375 -10.23976563 -45.046875 -10.36328125 C-29.64737536 -12.73024138 -12.20989704 -10.01462445 0 0 Z M-48.6484375 25.03515625 C-54.79557036 33.97159505 -55.20246422 42.05731213 -55.25 52.6875 C-55.270625 53.82123047 -55.29125 54.95496094 -55.3125 56.12304688 C-55.36075836 66.5890777 -53.41197933 76.46231013 -47 85 C-43.1109786 88.51956436 -38.43204714 89.80967289 -33.265625 90.15234375 C-28.35106611 89.82188203 -24.87910788 87.73155668 -21.30859375 84.44140625 C-12.21343775 73.84178836 -11.85117719 58.76397569 -12.72949219 45.51074219 C-13.69422558 36.55648387 -16.70222561 27.92277439 -23.171875 21.453125 C-26.69277982 18.65445706 -30.01046895 17.29842966 -34.5 16.625 C-40.91572838 17.58735926 -44.7005321 20.04221707 -48.6484375 25.03515625 Z " fill="#F9F6F0" transform="translate(862,501)"/>
<path d="M0 0 C0.70769531 0.25394531 1.41539062 0.50789063 2.14453125 0.76953125 C9.12071277 3.65377738 14.86169555 9.60478032 20 15 C20 15.66 20 16.32 20 17 C21.485 17.495 21.485 17.495 23 18 C24.31228409 20.11754933 25.42459079 22.14123312 26.5 24.375 C26.80824707 25.0040625 27.11649414 25.633125 27.43408203 26.28125 C30.00379241 31.68598413 31.80725055 37.12800269 33 43 C33.18304687 43.89976562 33.36609375 44.79953125 33.5546875 45.7265625 C36.09764651 64.41954191 34.22862598 86.35834342 22.625 101.8125 C21.43337886 103.22262737 20.22571338 104.61940345 19 106 C18.50113281 106.61488281 18.00226563 107.22976563 17.48828125 107.86328125 C8.50358975 118.07007185 -7.1836529 122.86374025 -20.2734375 124.37890625 C-36.16722963 124.98718718 -51.56756845 119.38180095 -63.68359375 109.21875 C-76.39465746 97.04356587 -81.40345096 80.0460182 -82.12890625 62.96484375 C-82.3450263 51.10705691 -81.25219366 39.74626465 -76 29 C-75.566875 28.09507812 -75.13375 27.19015625 -74.6875 26.2578125 C-67.92098891 12.98221194 -57.22660067 2.95884896 -43 -2 C-29.19934341 -6.00664224 -13.21248474 -5.49716518 0 0 Z M-38 31 C-43.82567147 39.69106688 -44.36620516 49.650202 -44.3125 59.8125 C-44.30903564 60.87259277 -44.30557129 61.93268555 -44.30200195 63.02490234 C-44.19890181 70.43102452 -43.6548742 77.02323757 -41 84 C-40.5875 85.134375 -40.175 86.26875 -39.75 87.4375 C-36.80984314 91.74272968 -32.91795638 94.36068121 -28 96 C-23.56734343 96.39067482 -19.43288267 96.55361376 -15.25 94.9375 C-7.4187924 88.19396012 -4.32893655 81.19635389 -3 71 C-1.78273376 48.69648981 -1.78273376 48.69648981 -11 29 C-15.17915063 25.02471037 -17.8023514 24.11987174 -23.4375 23.8125 C-29.55690422 24.13457391 -33.84402738 26.48910961 -38 31 Z " fill="#FAF7F1" transform="translate(732,495)"/>
<path d="M0 0 C9.11862973 7.28162423 14.18241122 18.49605634 16.125 29.75 C16.37794802 32.74689758 16.39943282 35.71997381 16.38378906 38.72631836 C16.3872937 39.57298065 16.39079834 40.41964294 16.39440918 41.29196167 C16.40312988 44.05800857 16.39741557 46.82379479 16.390625 49.58984375 C16.39197355 51.52275135 16.39391566 53.45565862 16.39642334 55.38856506 C16.39936073 59.42224383 16.39511838 63.45583358 16.38574219 67.48950195 C16.37429472 72.66702999 16.38094918 77.84435187 16.39288712 83.02187252 C16.40009752 87.00488351 16.3978225 90.98784518 16.39263153 94.97085762 C16.39129553 96.88109931 16.39294101 98.79134545 16.39759064 100.70158195 C16.40264823 103.36099099 16.39495903 106.0200598 16.38378906 108.67944336 C16.38783752 109.47162766 16.39188599 110.26381195 16.39605713 111.08000183 C16.3535398 116.5214602 16.3535398 116.5214602 14.125 118.75 C11.08398438 119.00878906 11.08398438 119.00878906 7.21875 119.015625 C6.19799377 119.01849518 6.19799377 119.01849518 5.15661621 119.02142334 C3.71752554 119.02278463 2.27842256 119.01909205 0.83935547 119.01074219 C-1.36649087 119.00004128 -3.57152281 119.01063872 -5.77734375 119.0234375 C-7.17448097 119.02211589 -8.57161768 119.01955348 -9.96875 119.015625 C-11.24427734 119.01336914 -12.51980469 119.01111328 -13.83398438 119.00878906 C-16.875 118.75 -16.875 118.75 -18.875 116.75 C-19.14001465 113.68479919 -19.14001465 113.68479919 -19.16210938 109.68920898 C-19.16894241 108.9621022 -19.17577545 108.23499542 -19.18281555 107.4858551 C-19.19642357 105.90351399 -19.20546398 104.32112863 -19.21052551 102.73873711 C-19.2188091 100.22818084 -19.23931363 97.71798932 -19.26306152 95.20753479 C-19.31135991 89.86757745 -19.34419344 84.52758306 -19.375 79.1875 C-19.41074709 73.02216988 -19.45292403 66.85701475 -19.51094055 60.69185066 C-19.53087587 58.22979958 -19.53930509 55.76788548 -19.54724121 53.30577087 C-19.18562396 40.69785538 -19.18562396 40.69785538 -23.625 29.3125 C-28.2381066 26.10895375 -32.20030891 25.28906251 -37.78515625 26.2109375 C-42.66685323 27.47014158 -46.69181297 29.22330706 -49.8125 33.25 C-51.8045022 37.937064 -52.02977283 42.18421877 -52.04858398 47.24072266 C-52.055271 47.98911911 -52.06195801 48.73751556 -52.06884766 49.5085907 C-52.08287016 51.12966936 -52.09477307 52.75076744 -52.10479546 54.37187576 C-52.12122923 56.9351947 -52.14446489 59.49836842 -52.16969299 62.06161499 C-52.24042593 69.34796919 -52.30073854 76.63438023 -52.35180664 83.92089844 C-52.38353449 88.3800306 -52.4247849 92.83899133 -52.47200203 97.29798508 C-52.48804897 98.9988638 -52.50035804 100.69978195 -52.50890923 102.40071487 C-52.52101564 104.77334355 -52.54514199 107.14556585 -52.57202148 109.51806641 C-52.57261063 110.22459854 -52.57319977 110.93113068 -52.57380676 111.65907288 C-52.6470948 116.5220948 -52.6470948 116.5220948 -54.875 118.75 C-57.91601562 118.99291992 -57.91601562 118.99291992 -61.78125 118.98046875 C-62.46175415 118.98001053 -63.1422583 118.97955231 -63.84338379 118.9790802 C-65.28248843 118.97605852 -66.72158983 118.96817466 -68.16064453 118.95581055 C-70.36632851 118.9375717 -72.57159229 118.93530075 -74.77734375 118.93554688 C-85.57992626 118.89753687 -85.57992626 118.89753687 -87.875 117.75 C-87.92167686 102.13849554 -87.95696762 86.52700984 -87.97862434 70.91545296 C-87.98894625 63.66708166 -88.00302399 56.41875366 -88.02587891 49.17041016 C-88.04578487 42.85431702 -88.05870978 36.53825524 -88.06317699 30.22213161 C-88.06578913 26.87637189 -88.07194761 23.53070188 -88.08646011 20.18497086 C-88.10089039 16.45415077 -88.10298149 12.72351909 -88.10205078 8.99267578 C-88.10924133 7.87777771 -88.11643188 6.76287964 -88.12384033 5.61419678 C-88.121091 4.60174896 -88.11834167 3.58930115 -88.11550903 2.5461731 C-88.11735262 1.66309542 -88.11919621 0.78001774 -88.12109566 -0.12981987 C-87.875 -2.25 -87.875 -2.25 -85.875 -4.25 C-75.52761827 -5.88704845 -64.20564581 -6.12829924 -53.875 -4.25 C-53.215 -0.95 -52.555 2.35 -51.875 5.75 C-50.823125 4.656875 -49.77125 3.56375 -48.6875 2.4375 C-36.1231922 -10.02629333 -14.4384555 -9.27961737 0 0 Z " fill="#FBF8F2" transform="translate(392.875,496.25)"/>
<path d="M0 0 C11.82249455 10.34468273 17.03575217 24.74471891 19 40 C19.23131292 44.04748525 19.23711524 48.07221865 19.1875 52.125 C19.1865332 53.68347656 19.1865332 53.68347656 19.18554688 55.2734375 C19.14086673 62.85913327 19.14086673 62.85913327 18 64 C15.16555085 64.24842931 12.35643476 64.42799557 9.515625 64.55859375 C8.62933411 64.60084579 7.74304321 64.64309784 6.82989502 64.68663025 C-4.52699595 65.17514421 -15.88524912 65.1079796 -27.25 65.0625 C-29.47135314 65.0574677 -31.6927074 65.0529079 -33.9140625 65.04882812 C-39.27606679 65.03797624 -44.63802787 65.02137924 -50 65 C-49.43157297 67.54582745 -48.84593692 70.08559715 -48.25 72.625 C-48.09273438 73.33785156 -47.93546875 74.05070313 -47.7734375 74.78515625 C-46.48992029 80.1660553 -44.62572177 84.7681365 -40.28125 88.4609375 C-32.18116661 92.61755924 -23.99708268 91.79445449 -15.4375 89.375 C-10.01201908 87.57084848 -5.26885287 85.11590889 -0.4375 82.07421875 C2 81 2 81 4.48828125 80.97265625 C7.9948051 82.4068954 9.90483343 84.84918318 12.1875 87.75 C12.62513672 88.2759375 13.06277344 88.801875 13.51367188 89.34375 C15.99524143 92.40498389 17.75949021 95.25767995 19 99 C11.80787782 109.25185142 -3.66776797 113.32397632 -15.3984375 115.68359375 C-32.81017892 118.52033814 -50.00887618 118.21902974 -65 108 C-67.64938158 105.88049474 -69.84067919 103.61309113 -72 101 C-72.59554688 100.28199219 -73.19109375 99.56398438 -73.8046875 98.82421875 C-86.74048523 81.86333374 -87.42230045 59.70759784 -84.984375 39.34375 C-82.81653885 23.37022048 -75.62134325 9.69204813 -62.8125 -0.1875 C-45.1668463 -12.49897498 -17.05036358 -14.56385222 0 0 Z M-42 19 C-47.49444665 24.96234357 -49 32.07267281 -49 40 C-37.45 40 -25.9 40 -14 40 C-14.99632796 31.03304837 -15.97604357 26.97434274 -21.1875 20.125 C-27.58609251 15.29050788 -35.08697102 14.73137239 -42 19 Z " fill="#F7F4EF" transform="translate(500,500)"/>
<path d="M0 0 C1.04450317 0.00326294 1.04450317 0.00326294 2.11010742 0.0065918 C4.23278268 0.00974873 6.35405999 -0.01369198 8.4765625 -0.0390625 C9.82486803 -0.04133583 11.17317731 -0.04203883 12.52148438 -0.04101562 C14.36407837 -0.04548706 14.36407837 -0.04548706 16.24389648 -0.05004883 C19.30664062 0.32226562 19.30664062 0.32226562 21.19873047 1.36523438 C22.93579599 4.43361631 22.78887184 7.56073231 22.81835938 10.99804688 C22.83644653 11.80304123 22.85453369 12.60803558 22.87316895 13.43742371 C22.92923704 16.16982913 22.96237013 18.90197613 22.99414062 21.63476562 C23.02598335 23.57748164 23.05830542 25.52018985 23.09106445 27.46289062 C23.19717848 34.4157778 23.25516434 41.36878535 23.30664062 48.32226562 C23.31203857 49.02582939 23.31743652 49.72939316 23.32299805 50.45427704 C23.40687307 61.44923609 23.45881421 72.44405945 23.48697281 83.43929672 C23.49414271 85.8229599 23.50445808 88.20659222 23.51547241 90.59024048 C23.53214942 94.3821279 23.53811752 98.17389251 23.536026 101.96581459 C23.53674134 103.37731826 23.54082479 104.78882474 23.54847717 106.20030785 C23.55828707 108.14783681 23.55424041 110.0954207 23.54956055 112.04296875 C23.55098557 113.13967896 23.55241058 114.23638916 23.55387878 115.36633301 C23.30083488 118.39167801 22.58547916 120.58550639 21.30664062 123.32226562 C16.62524809 123.34691851 11.94389303 123.36510302 7.26245117 123.37719727 C5.66869448 123.3822372 4.07494243 123.38906912 2.48120117 123.39770508 C0.1951381 123.40978561 -2.09086405 123.41549718 -4.37695312 123.41992188 C-5.09362656 123.42508316 -5.81029999 123.43024445 -6.5486908 123.43556213 C-8.2639961 123.43575825 -9.97917204 123.3841857 -11.69335938 123.32226562 C-13.31745485 121.69817015 -12.82280578 119.9036794 -12.82707214 117.6598053 C-12.83133713 116.65162247 -12.83560211 115.64343964 -12.83999634 114.60470581 C-12.83954315 113.48935455 -12.83908997 112.3740033 -12.83862305 111.22485352 C-12.84198166 110.05749161 -12.84534027 108.8901297 -12.84880066 107.68739319 C-12.85669615 104.47666665 -12.85997959 101.26597883 -12.86061645 98.05524373 C-12.86156398 95.37868066 -12.86524049 92.70212385 -12.86878854 90.02556318 C-12.87694053 83.71275832 -12.8793721 77.39996772 -12.87866211 71.0871582 C-12.87806115 64.56664321 -12.88861488 58.0462109 -12.90440577 51.52571684 C-12.91746437 45.93504955 -12.92284671 40.34440934 -12.9222067 34.7537269 C-12.92195121 31.41134549 -12.92483024 28.0690375 -12.93538475 24.72667122 C-12.94512749 21.00073412 -12.94232928 17.27501247 -12.9362793 13.54907227 C-12.9418988 12.43574524 -12.94751831 11.32241821 -12.95330811 10.175354 C-12.94911362 9.16435135 -12.94491913 8.15334869 -12.94059753 7.11170959 C-12.9411423 6.22993073 -12.94168707 5.34815187 -12.94224834 4.43965244 C-12.20392303 -1.84154313 -4.78403958 0.01980211 0 0 Z " fill="#F7F4EF" transform="translate(273.693359375,491.677734375)"/>
<path d="M0 0 C3.04945665 2.41836049 4.93967246 4.33306988 5.9765625 8.1328125 C6.73810412 15.29822684 6.10144517 21.01947456 1.84375 27 C0.10293564 29.06623687 -1.71653227 30.97523718 -3.640625 32.87109375 C-4.14207031 33.39445313 -4.64351563 33.9178125 -5.16015625 34.45703125 C-13.0520662 42.00928937 -24.58975777 46.07729592 -34.640625 49.87109375 C-35.91292969 50.41443359 -35.91292969 50.41443359 -37.2109375 50.96875 C-40.13124983 52.05330329 -42.55049603 52.01482068 -45.640625 51.87109375 C-44.24346052 47.67960032 -41.28981178 46.58640887 -37.640625 44.49609375 C-36.95871094 44.09398682 -36.27679688 43.69187988 -35.57421875 43.27758789 C-31.98192579 41.17086485 -28.35294302 39.19697774 -24.640625 37.30859375 C-20.07146677 34.81159646 -16.38569936 31.3108764 -13.640625 26.87109375 C-13.640625 25.55109375 -13.640625 24.23109375 -13.640625 22.87109375 C-12.650625 22.37609375 -12.650625 22.37609375 -11.640625 21.87109375 C-11.640625 21.21109375 -11.640625 20.55109375 -11.640625 19.87109375 C-10.650625 19.21109375 -9.660625 18.55109375 -8.640625 17.87109375 C-7.85500638 15.08571864 -7.640625 12.77070205 -7.640625 9.87109375 C-8.960625 9.87109375 -10.280625 9.87109375 -11.640625 9.87109375 C-11.640625 10.53109375 -11.640625 11.19109375 -11.640625 11.87109375 C-12.775 12.01546875 -13.909375 12.15984375 -15.078125 12.30859375 C-18.44839701 12.48280853 -18.44839701 12.48280853 -19.640625 13.87109375 C-21.30679615 13.91173207 -22.97450595 13.91381475 -24.640625 13.87109375 C-24.640625 14.53109375 -24.640625 15.19109375 -24.640625 15.87109375 C-25.960625 15.87109375 -27.280625 15.87109375 -28.640625 15.87109375 C-28.640625 16.53109375 -28.640625 17.19109375 -28.640625 17.87109375 C-29.960625 17.87109375 -31.280625 17.87109375 -32.640625 17.87109375 C-32.640625 18.53109375 -32.640625 19.19109375 -32.640625 19.87109375 C-46.23068386 26.2449907 -59.92201272 25.39234786 -74.640625 24.87109375 C-74.640625 24.21109375 -74.640625 23.55109375 -74.640625 22.87109375 C-76.950625 22.87109375 -79.260625 22.87109375 -81.640625 22.87109375 C-81.640625 22.21109375 -81.640625 21.55109375 -81.640625 20.87109375 C-82.960625 20.87109375 -84.280625 20.87109375 -85.640625 20.87109375 C-85.640625 19.88109375 -85.640625 18.89109375 -85.640625 17.87109375 C-86.300625 17.54109375 -86.960625 17.21109375 -87.640625 16.87109375 C-86.650625 16.87109375 -85.660625 16.87109375 -84.640625 16.87109375 C-84.310625 16.21109375 -83.980625 15.55109375 -83.640625 14.87109375 C-82.939375 15.07605469 -82.238125 15.28101563 -81.515625 15.4921875 C-75.89560465 17.08809002 -70.4799308 18.50613714 -64.640625 18.87109375 C-63.856875 18.92394531 -63.073125 18.97679687 -62.265625 19.03125 C-45.90238335 19.59130143 -29.1640886 14.83666631 -15.828125 5.33984375 C-13.26423884 3.61837733 -10.65288818 2.18972534 -7.890625 0.80859375 C-7.00890625 0.36386719 -6.1271875 -0.08085938 -5.21875 -0.5390625 C-2.640625 -1.12890625 -2.640625 -1.12890625 0 0 Z " fill="#EA1B1D" transform="translate(241.640625,587.12890625)"/>
<path d="M0 0 C1.19044922 -0.00386719 2.38089844 -0.00773437 3.60742188 -0.01171875 C5.47430664 0.00568359 5.47430664 0.00568359 7.37890625 0.0234375 C8.61962891 0.01183594 9.86035156 0.00023437 11.13867188 -0.01171875 C12.9262793 -0.00591797 12.9262793 -0.00591797 14.75 0 C15.84111084 0.00338379 16.93222168 0.00676758 18.05639648 0.01025391 C21.31561509 0.44878802 22.71017009 0.99092904 24.94140625 3.3984375 C25.44311523 5.61914062 25.44311523 5.61914062 25.4375 8.1796875 C25.43814453 9.10394531 25.43878906 10.02820313 25.43945312 10.98046875 C25.41947266 11.94339844 25.39949219 12.90632813 25.37890625 13.8984375 C25.38599609 14.86136719 25.39308594 15.82429688 25.40039062 16.81640625 C25.3373646 23.76866115 25.3373646 23.76866115 23.82470703 26.17456055 C21.01450112 28.00079366 18.70119954 27.77007547 15.375 27.76171875 C13.44043945 27.76075195 13.44043945 27.76075195 11.46679688 27.75976562 C10.79624268 27.75146729 10.12568848 27.74316895 9.43481445 27.73461914 C7.38257737 27.71097979 5.33163592 27.71406602 3.27929688 27.72070312 C-6.79174657 27.66528468 -6.79174657 27.66528468 -9.05859375 25.3984375 C-9.51154708 21.77199246 -9.38264177 18.11242012 -9.37109375 14.4609375 C-9.38720703 13.44580078 -9.40332031 12.43066406 -9.41992188 11.38476562 C-9.42056641 10.41087891 -9.42121094 9.43699219 -9.421875 8.43359375 C-9.42485596 7.540354 -9.42783691 6.64711426 -9.4309082 5.72680664 C-9.05859375 3.3984375 -9.05859375 3.3984375 -7.91455078 1.60864258 C-5.2442383 -0.13257539 -3.17056715 0.00984284 0 0 Z " fill="#FBF9F4" transform="translate(270.05859375,457.6015625)"/>
<path d="M0 0 C0 0.66 0 1.32 0 2 C-3.13498292 3.85776765 -5.37471432 4.20140476 -9 4 C-9 4.66 -9 5.32 -9 6 C-10.32 6 -11.64 6 -13 6 C-13 6.66 -13 7.32 -13 8 C-14.32 8 -15.64 8 -17 8 C-17 8.66 -17 9.32 -17 10 C-30.59005886 16.37389695 -44.28138772 15.52125411 -59 15 C-59 14.34 -59 13.68 -59 13 C-61.31 13 -63.62 13 -66 13 C-66 12.34 -66 11.68 -66 11 C-67.32 11 -68.64 11 -70 11 C-70 10.01 -70 9.02 -70 8 C-70.66 7.67 -71.32 7.34 -72 7 C-71.01 7 -70.02 7 -69 7 C-68.67 6.34 -68.34 5.68 -68 5 C-66.948125 5.30744141 -66.948125 5.30744141 -65.875 5.62109375 C-60.25497965 7.21699627 -54.8393058 8.63504339 -49 9 C-47.824375 9.07927734 -47.824375 9.07927734 -46.625 9.16015625 C-34.09055939 9.5891624 -22.25966691 6.47718208 -10.67138672 1.98193359 C-6.97960189 0.5704996 -3.96798329 -0.34671699 0 0 Z " fill="#342C31" transform="translate(226,597)"/>
<path d="M0 0 C0.66 0 1.32 0 2 0 C1.46274105 3.37705625 0.88935377 6.696686 0 10 C1.98 9.34 3.96 8.68 6 8 C0.65702164 19.76967403 -15.72965454 24.74589822 -27 29 C-27.84820312 29.36222656 -28.69640625 29.72445312 -29.5703125 30.09765625 C-32.49062483 31.18220954 -34.90987103 31.14372693 -38 31 C-36.60296423 26.8088927 -33.64939841 25.71462434 -30 23.625 C-29.31953613 23.22506836 -28.63907227 22.82513672 -27.93798828 22.41308594 C-24.29036146 20.2794539 -20.60560674 18.23544155 -16.875 16.25 C-14.21373588 14.81431804 -12.20472772 13.3834478 -10.125 11.1875 C-9.42375 10.465625 -8.7225 9.74375 -8 9 C-7.01 9 -6.02 9 -5 9 C-4.67 7.68 -4.34 6.36 -4 5 C-2.68 4.67 -1.36 4.34 0 4 C0 2.68 0 1.36 0 0 Z " fill="#ED1F20" transform="translate(234,608)"/>
<path d="M0 0 C0.9411969 0.00045822 1.8823938 0.00091644 2.85211182 0.00138855 C4.8322476 0.00439884 6.81238128 0.01224834 8.79248047 0.0246582 C11.83179039 0.04299086 14.87079663 0.04516718 17.91015625 0.04492188 C19.83594015 0.04983469 21.76172198 0.05566198 23.6875 0.0625 C25.05464142 0.06416924 25.05464142 0.06416924 26.44940186 0.06587219 C27.29077698 0.07225204 28.1321521 0.0786319 28.99902344 0.08520508 C29.74037537 0.08901688 30.48172729 0.09282867 31.24554443 0.09675598 C33.078125 0.23046875 33.078125 0.23046875 35.078125 1.23046875 C35.078125 1.89046875 35.078125 2.55046875 35.078125 3.23046875 C33.299823 3.2147583 33.299823 3.2147583 31.4855957 3.19873047 C27.07807446 3.16247133 22.67056635 3.13954671 18.26293945 3.12060547 C16.3569924 3.11056138 14.45106071 3.09692359 12.54516602 3.07958984 C9.80220748 3.05527157 7.05945309 3.04396963 4.31640625 3.03515625 C3.46726151 3.02483368 2.61811676 3.01451111 1.74324036 3.00387573 C-2.65287146 3.00304609 -5.88381433 3.2993886 -9.921875 5.23046875 C-12.68736258 5.20151076 -15.17907604 4.69534993 -17.921875 4.23046875 C-13.05512434 -0.63628191 -6.42168488 -0.0510811 0 0 Z " fill="#F82023" transform="translate(176.921875,420.76953125)"/>
<path d="M0 0 C1.57491211 0.09958008 1.57491211 0.09958008 3.18164062 0.20117188 C4.19291016 0.28302734 5.20417969 0.36488281 6.24609375 0.44921875 C7.16962646 0.51842529 8.09315918 0.58763184 9.04467773 0.65893555 C11.5625 1.3125 11.5625 1.3125 15.5625 5.3125 C7.9725 5.3125 0.3825 5.3125 -7.4375 5.3125 C-7.4375 4.6525 -7.4375 3.9925 -7.4375 3.3125 C-9.7475 3.3125 -12.0575 3.3125 -14.4375 3.3125 C-14.4375 2.3225 -14.4375 1.3325 -14.4375 0.3125 C-9.66130962 -1.27956346 -4.96593318 -0.40395664 0 0 Z " fill="#2B3239" transform="translate(176.4375,605.6875)"/>
<path d="M0 0 C0 0.66 0 1.32 0 2 C-3.13498292 3.85776765 -5.37471432 4.20140476 -9 4 C-9 4.66 -9 5.32 -9 6 C-10.32 6 -11.64 6 -13 6 C-13 6.66 -13 7.32 -13 8 C-14.32 8 -15.64 8 -17 8 C-17 8.66 -17 9.32 -17 10 C-19.31 10.66 -21.62 11.32 -24 12 C-24 11.34 -24 10.68 -24 10 C-25.65 9.67 -27.3 9.34 -29 9 C-24.51307375 6.66349886 -19.82444701 5.0568937 -15.0625 3.375 C-14.16853516 3.05015625 -13.27457031 2.7253125 -12.35351562 2.390625 C-11.48533203 2.08382812 -10.61714844 1.77703125 -9.72265625 1.4609375 C-8.54328491 1.04013916 -8.54328491 1.04013916 -7.34008789 0.61083984 C-4.80608547 -0.05061807 -2.60774566 -0.10799434 0 0 Z " fill="#532D31" transform="translate(226,597)"/>
<path d="M0 0 C0.66 0 1.32 0 2 0 C3.01378445 3.04135336 3.12901562 5.11509013 3.1328125 8.296875 C3.13410156 9.3384375 3.13539062 10.38 3.13671875 11.453125 C3.13285156 12.54109375 3.12898438 13.6290625 3.125 14.75 C3.12886719 15.8225 3.13273437 16.895 3.13671875 18 C3.13001941 23.43986498 2.96430133 28.64277038 2 34 C-0.48360441 30.27459338 -0.2315867 28.36937027 -0.1953125 23.92578125 C-0.1924826 23.2419487 -0.18965271 22.55811615 -0.18673706 21.8535614 C-0.17555684 19.67302835 -0.15045691 17.49290855 -0.125 15.3125 C-0.11496738 13.83268823 -0.10584202 12.35287001 -0.09765625 10.87304688 C-0.07562481 7.248564 -0.04111002 3.62432234 0 0 Z " fill="#F6292C" transform="translate(124,523)"/>
<path d="M0 0 C0.66 0.33 1.32 0.66 2 1 C0.80697871 6.84580433 -1.37885796 11.08640124 -6 15 C-8.9165992 16.0937247 -9.65824685 16.13832866 -12.625 14.9375 C-15.54896549 12.55215973 -16.11719174 10.61148835 -17 7 C-15.35 6.67 -13.7 6.34 -12 6 C-11.67 7.98 -11.34 9.96 -11 12 C-10.01 12 -9.02 12 -8 12 C-5.2650899 9.06973918 -3.27424305 6.82272915 -2 3 C-1.34 3 -0.68 3 0 3 C0 2.01 0 1.02 0 0 Z " fill="#F9242B" transform="translate(242,466)"/>
<path d="M0 0 C0.77321882 2.98241547 1.41196203 5.97580475 2 9 C2.66 9 3.32 9 4 9 C4 10.32 4 11.64 4 13 C3.34 13 2.68 13 2 13 C1.9175 13.639375 1.835 14.27875 1.75 14.9375 C0.70479628 19.20541517 -1.14091826 23.03107667 -3 27 C-3.33 27 -3.66 27 -4 27 C-4 23.7 -4 20.4 -4 17 C-3.01 17 -2.02 17 -1 17 C-1.33 12.05 -1.66 7.1 -2 2 C-1.34 2 -0.68 2 0 2 C0 1.34 0 0.68 0 0 Z " fill="#EB1F24" transform="translate(89,506)"/>
<path d="M0 0 C0.66 0 1.32 0 2 0 C2 0.66 2 1.32 2 2 C2.5775 2.226875 3.155 2.45375 3.75 2.6875 C6.5663661 4.33038023 8.08077114 6.39533227 10 9 C9.01 10.485 9.01 10.485 8 12 C7.34 12 6.68 12 6 12 C6 13.32 6 14.64 6 16 C5.34 16 4.68 16 4 16 C1.92054974 12.88082461 1.79214424 12.41258857 2 8.9375 C2 7.638125 2 6.33875 2 5 C1.34 4.34 0.68 3.68 0 3 C0 2.01 0 1.02 0 0 Z " fill="#EF181E" transform="translate(135,585)"/>
<path d="M0 0 C0.66 0.33 1.32 0.66 2 1 C1.67 2.98 1.34 4.96 1 7 C0.34 7 -0.32 7 -1 7 C-1.20496094 7.69867188 -1.40992187 8.39734375 -1.62109375 9.1171875 C-1.89050781 10.02726562 -2.15992187 10.93734375 -2.4375 11.875 C-2.83775391 13.23238281 -2.83775391 13.23238281 -3.24609375 14.6171875 C-4 17 -4 17 -5 19 C-5.66 19 -6.32 19 -7 19 C-6.57815943 12.35601103 -5.42584281 6.7916135 -2 1 C-1.34 0.67 -0.68 0.34 0 0 Z " fill="#FA1F21" transform="translate(96,485)"/>
<path d="M0 0 C2.64 0.66 5.28 1.32 8 2 C8 2.66 8 3.32 8 4 C8.99 4.33 9.98 4.66 11 5 C8.03 4.505 8.03 4.505 5 4 C5 4.99 5 5.98 5 7 C7.31 7 9.62 7 12 7 C12 7.66 12 8.32 12 9 C13.98 9 15.96 9 18 9 C18 9.33 18 9.66 18 10 C15.36 10 12.72 10 10 10 C10 9.34 10 8.68 10 8 C7.69 8 5.38 8 3 8 C3 7.34 3 6.68 3 6 C1.68 6 0.36 6 -1 6 C-1 5.01 -1 4.02 -1 3 C-1.66 2.67 -2.32 2.34 -3 2 C-2.01 2 -1.02 2 0 2 C0 1.34 0 0.68 0 0 Z " fill="#5D282F" transform="translate(157,602)"/>
<path d="M0 0 C0.66 0 1.32 0 2 0 C0.83335625 2.52772812 -0.45296155 4.64512706 -2.0625 6.9375 C-3.87979299 9.80999537 -4.60858637 11.67298419 -5 15 C-5.804375 15.12375 -6.60875 15.2475 -7.4375 15.375 C-8.283125 15.58125 -9.12875 15.7875 -10 16 C-10.33 16.66 -10.66 17.32 -11 18 C-10.49437031 13.34000746 -9.33752518 10.43626956 -6.625 6.625 C-6.01914063 5.75101562 -5.41328125 4.87703125 -4.7890625 3.9765625 C-4.19867188 3.32429688 -3.60828125 2.67203125 -3 2 C-2.01 2 -1.02 2 0 2 C0 1.34 0 0.68 0 0 Z " fill="#FA1E24" transform="translate(112,460)"/>
<path d="M0 0 C0.99 0.33 1.98 0.66 3 1 C2.31164062 2.051875 2.31164062 2.051875 1.609375 3.125 C-1.94801049 8.62549521 -5.20520965 14.07504446 -8 20 C-8.66 19.67 -9.32 19.34 -10 19 C-9.51180778 13.9121217 -7.90712067 10.85610339 -5 6.6875 C-4.278125 5.63949219 -3.55625 4.59148437 -2.8125 3.51171875 C-1 1 -1 1 0 0 Z " fill="#F52326" transform="translate(145,470)"/>
<path d="M0 0 C0.33 0 0.66 0 1 0 C1.33 2.64 1.66 5.28 2 8 C2.66 8 3.32 8 4 8 C4.33 9.65 4.66 11.3 5 13 C5.66 13 6.32 13 7 13 C7 14.98 7 16.96 7 19 C6.34 19 5.68 19 5 19 C1.49860284 14.30051203 -2 9.0102417 -2 3 C-1.34 2.01 -0.68 1.02 0 0 Z " fill="#F91D20" transform="translate(92,577)"/>
<path d="M0 0 C0.66 0 1.32 0 2 0 C1.125 5.75 1.125 5.75 0 8 C-0.66 8 -1.32 8 -2 8 C-2 8.66 -2 9.32 -2 10 C-2.99 10.33 -3.98 10.66 -5 11 C-5.45375 11.495 -5.9075 11.99 -6.375 12.5 C-8.46918881 14.43309736 -10.22150692 14.62452796 -13 15 C-9.38671875 10.3125 -9.38671875 10.3125 -8 9 C-7.01 9 -6.02 9 -5 9 C-4.67 7.68 -4.34 6.36 -4 5 C-2.68 4.67 -1.36 4.34 0 4 C0 2.68 0 1.36 0 0 Z " fill="#F11F28" transform="translate(234,608)"/>
<path d="M0 0 C0 1.65 0 3.3 0 5 C-0.66 5 -1.32 5 -2 5 C-2 6.32 -2 7.64 -2 9 C-3.32 9 -4.64 9 -6 9 C-6 8.34 -6 7.68 -6 7 C-8.31 7.33 -10.62 7.66 -13 8 C-10.16930135 4.69751824 -4.70371294 0 0 0 Z " fill="#C21C1F" transform="translate(232,590)"/>
<path d="M0 0 C0.66 0 1.32 0 2 0 C2 0.66 2 1.32 2 2 C2.66 2 3.32 2 4 2 C4 2.66 4 3.32 4 4 C4.66 4 5.32 4 6 4 C6 4.66 6 5.32 6 6 C6.99 6.33 7.98 6.66 9 7 C10.1875 10.0625 10.1875 10.0625 11 13 C8 13 8 13 6.46484375 11.57421875 C5.96082031 10.95160156 5.45679687 10.32898438 4.9375 9.6875 C4.43089844 9.07261719 3.92429687 8.45773437 3.40234375 7.82421875 C0 3.39832869 0 3.39832869 0 0 Z " fill="#F61E28" transform="translate(99,597)"/>
<path d="M0 0 C0 0.66 0 1.32 0 2 C-3.13498292 3.85776765 -5.37471432 4.20140476 -9 4 C-9 4.66 -9 5.32 -9 6 C-12.3 6 -15.6 6 -19 6 C-16.18752345 4.12501563 -13.77642791 3.04059662 -10.625 1.875 C-9.68914062 1.52179687 -8.75328125 1.16859375 -7.7890625 0.8046875 C-5.03420261 0.00986798 -2.84776932 -0.15533287 0 0 Z " fill="#6F282B" transform="translate(226,597)"/>
<path d="M0 0 C2.25 1.8125 2.25 1.8125 4.25 3.8125 C3.875 6.4375 3.875 6.4375 3.25 8.8125 C3.04375 8.173125 2.8375 7.53375 2.625 6.875 C1.36491494 4.48387131 1.36491494 4.48387131 -1.75 4.0625 C-4.58044881 3.78481817 -4.58044881 3.78481817 -6.75 3.8125 C-7.08 4.4725 -7.41 5.1325 -7.75 5.8125 C-8.41 5.8125 -9.07 5.8125 -9.75 5.8125 C-9.625 4 -9.625 4 -8.75 1.8125 C-3.83 -1.65386364 -3.83 -1.65386364 0 0 Z " fill="#DE262A" transform="translate(241.75,587.1875)"/>
<path d="M0 0 C0.59167969 0.0721875 1.18335938 0.144375 1.79296875 0.21875 C5.88261722 0.69910023 9.8738531 1.13310151 14 1 C11.06810006 3.39073149 8.27856712 4.84107307 4.75 6.1875 C3.41195312 6.70376953 3.41195312 6.70376953 2.046875 7.23046875 C1.37140625 7.48441406 0.6959375 7.73835937 0 8 C0 5.36 0 2.72 0 0 Z " fill="#D41E23" transform="translate(212,627)"/>
<path d="M0 0 C0.33 0 0.66 0 1 0 C1.95261487 4.76307437 2.08333357 9.1666528 2 14 C1.01 14 0.02 14 -1 14 C-0.97679688 14.75925781 -0.95359375 15.51851562 -0.9296875 16.30078125 C-0.91164063 17.29464844 -0.89359375 18.28851562 -0.875 19.3125 C-0.85179688 20.29863281 -0.82859375 21.28476562 -0.8046875 22.30078125 C-1 25 -1 25 -3 28 C-2.69127653 24.4579936 -2.37734668 20.91646694 -2.0625 17.375 C-1.97548828 16.37597656 -1.88847656 15.37695312 -1.79882812 14.34765625 C-1.36767947 9.52517874 -0.90214786 4.76269053 0 0 Z " fill="#CE1718" transform="translate(86,509)"/>
<path d="M0 0 C0.99 0.33 1.98 0.66 3 1 C3.34707004 6.78450072 3.27233705 10.96563531 0 16 C-0.66 16.33 -1.32 16.66 -2 17 C-2 14.69 -2 12.38 -2 10 C-1.34 10 -0.68 10 0 10 C0 6.7 0 3.4 0 0 Z " fill="#FA2730" transform="translate(251,442)"/>
<path d="M0 0 C0.061875 0.94875 0.12375 1.8975 0.1875 2.875 C0.455625 3.90625 0.72375 4.9375 1 6 C3.46255685 7.45291273 3.46255685 7.45291273 6 8 C4.3125 9.1875 4.3125 9.1875 2 10 C-0.625 9 -0.625 9 -3 7 C-4.3125 3.8125 -4.3125 3.8125 -5 1 C-3 0 -3 0 0 0 Z " fill="#F41F22" transform="translate(230,472)"/>
<path d="M0 0 C3.3 0 6.6 0 10 0 C9.67 0.66 9.34 1.32 9 2 C6.69 2 4.38 2 2 2 C2 2.66 2 3.32 2 4 C-1.63 4 -5.26 4 -9 4 C-9 3.34 -9 2.68 -9 2 C-6.03 2 -3.06 2 0 2 C0 1.34 0 0.68 0 0 Z " fill="#F21718" transform="translate(188,612)"/>
<path d="M0 0 C5.41110091 1.31978071 9.26441506 3.93285427 13 8 C13 8.66 13 9.32 13 10 C12.443125 9.71125 11.88625 9.4225 11.3125 9.125 C8.91505355 7.9586747 6.48403061 6.9660119 4 6 C4 5.01 4 4.02 4 3 C2.35 3 0.7 3 -1 3 C-0.67 2.01 -0.34 1.02 0 0 Z " fill="#FD1C21" transform="translate(237,431)"/>
<path d="M0 0 C5.61 0 11.22 0 17 0 C17 0.99 17 1.98 17 3 C11.39 2.67 5.78 2.34 0 2 C0 1.34 0 0.68 0 0 Z " fill="#F5F2F1" transform="translate(570,541)"/>
<path d="M0 0 C7.59 0 15.18 0 23 0 C23.33 0.66 23.66 1.32 24 2 C21.35261084 3.4606285 20.10551666 4 17 4 C17 3.01 17 2.02 17 1 C11.39 1 5.78 1 0 1 C0 0.67 0 0.34 0 0 Z " fill="#FDFDFC" transform="translate(570,540)"/>
<path d="M0 0 C0.99 0 1.98 0 3 0 C3 0.66 3 1.32 3 2 C4.32 2.33 5.64 2.66 7 3 C4.6875 5.5 4.6875 5.5 2 8 C1.01 8 0.02 8 -1 8 C-1 7.01 -1 6.02 -1 5 C-0.34 5 0.32 5 1 5 C0.34 3.68 -0.32 2.36 -1 1 C-0.67 0.67 -0.34 0.34 0 0 Z " fill="#F1171F" transform="translate(157,451)"/>
<path d="M0 0 C5.61 0 11.22 0 17 0 C12.64841679 3.26368741 10.17888431 3.6255682 5 3 C2 2 2 2 0 1 C0 0.67 0 0.34 0 0 Z " fill="#E73434" transform="translate(179,445)"/>
<path d="M0 0 C-1.4427317 3.36637397 -3.16467407 5.66502571 -6 8 C-7.32 8 -8.64 8 -10 8 C-9.9375 6.25 -9.9375 6.25 -9 4 C-6.29950956 1.99159505 -3.44873267 0 0 0 Z " fill="#F32428" transform="translate(240,616)"/>
<path d="M0 0 C2.97 0 5.94 0 9 0 C9 0.66 9 1.32 9 2 C9.66 2 10.32 2 11 2 C11 2.66 11 3.32 11 4 C3.57142857 4.28571429 3.57142857 4.28571429 0 2 C0 1.34 0 0.68 0 0 Z " fill="#F61B23" transform="translate(200,447)"/>
<path d="M0 0 C0.33 0.66 0.66 1.32 1 2 C0.34 2 -0.32 2 -1 2 C-1 2.99 -1 3.98 -1 5 C-2.75 6.60546875 -2.75 6.60546875 -5 8.1875 C-5.7425 8.71730469 -6.485 9.24710937 -7.25 9.79296875 C-7.8275 10.19128906 -8.405 10.58960938 -9 11 C-9 8.875 -9 8.875 -8 6 C-5.50224217 3.74515308 -2.80198037 1.85734917 0 0 Z " fill="#FC181B" transform="translate(137,435)"/>
<path d="M0 0 C2.12636813 0.28151916 4.25108528 0.57553263 6.375 0.875 C7.55835938 1.03742187 8.74171875 1.19984375 9.9609375 1.3671875 C13 2 13 2 15 4 C9.26157749 4.20413361 4.39460953 4.27141454 -1 2 C-0.67 1.34 -0.34 0.68 0 0 Z " fill="#EF2323" transform="translate(141,630)"/>
<path d="M0 0 C1.32 0 2.64 0 4 0 C4 1.65 4 3.3 4 5 C2.68 5.33 1.36 5.66 0 6 C-0.33 7.32 -0.66 8.64 -1 10 C-1.66 10 -2.32 10 -3 10 C-2.74438677 7.6568787 -2.40729228 5.32156597 -2 3 C-1.34 2.67 -0.68 2.34 0 2 C0 1.34 0 0.68 0 0 Z " fill="#CE1D20" transform="translate(230,607)"/>
<path d="M0 0 C0.66 0 1.32 0 2 0 C2 0.66 2 1.32 2 2 C2.61875 2.28875 3.2375 2.5775 3.875 2.875 C6 4 6 4 8 6 C8 7.32 8 8.64 8 10 C7.34 10 6.68 10 6 10 C6 9.34 6 8.68 6 8 C5.34 8 4.68 8 4 8 C0 3.64705882 0 3.64705882 0 0 Z " fill="#F81F27" transform="translate(135,585)"/>
<path d="M0 0 C0.66 0 1.32 0 2 0 C4.8394052 3.67452438 6 5.26886581 6 10 C3 9 3 9 1.3125 6.6875 C0 4 0 4 0 0 Z " fill="#F42223" transform="translate(220,462)"/>
<path d="M0 0 C3.4375 0.1875 3.4375 0.1875 7 1 C8.4375 3.0625 8.4375 3.0625 9 5 C4.78087253 4.5205537 2.20336822 3.83374881 -1 1 C-0.67 0.67 -0.34 0.34 0 0 Z " fill="#F92025" transform="translate(129,625)"/>
<path d="M0 0 C2.14699969 3.44175522 2.09856795 5.7720292 1.625 9.75 C1.51414063 10.73484375 1.40328125 11.7196875 1.2890625 12.734375 C1.19367188 13.48203125 1.09828125 14.2296875 1 15 C0.67 15 0.34 15 0 15 C-0.19448477 12.87562788 -0.38038289 10.75046809 -0.5625 8.625 C-0.66691406 7.44164062 -0.77132812 6.25828125 -0.87890625 5.0390625 C-1 2 -1 2 0 0 Z " fill="#B61F1B" transform="translate(246,593)"/>
<path d="M0 0 C1.32 0 2.64 0 4 0 C3.67 3.96 3.34 7.92 3 12 C2.67 12 2.34 12 2 12 C1.34 8.04 0.68 4.08 0 0 Z " fill="#D1181D" transform="translate(84,559)"/>
<path d="M0 0 C-0.66 0.66 -1.32 1.32 -2 2 C-5.0390625 1.9765625 -5.0390625 1.9765625 -8.625 1.625 C-9.81351563 1.51414062 -11.00203125 1.40328125 -12.2265625 1.2890625 C-13.14179688 1.19367187 -14.05703125 1.09828125 -15 1 C-15 0.67 -15 0.34 -15 0 C-9.77254141 -1.2063366 -5.23471686 -0.75612577 0 0 Z " fill="#C3191B" transform="translate(165,634)"/>
<path d="M0 0 C0.33 0 0.66 0 1 0 C1.25 6.625 1.25 6.625 -1 10 C-1.99 10 -2.98 10 -4 10 C-2.66666667 6.66666667 -1.33333333 3.33333333 0 0 Z " fill="#E92A31" transform="translate(245,603)"/>
<path d="M0 0 C1.953125 0.35807292 3.90625 0.71614583 5.859375 1.07421875 C5.859375 1.73421875 5.859375 2.39421875 5.859375 3.07421875 C1.899375 3.07421875 -2.060625 3.07421875 -6.140625 3.07421875 C-2.140625 0.07421875 -2.140625 0.07421875 0 0 Z " fill="#FE1F20" transform="translate(169.140625,632.92578125)"/>
<path d="M0 0 C1.65 0 3.3 0 5 0 C5 0.99 5 1.98 5 3 C2.69 3.33 0.38 3.66 -2 4 C-1.34 2.68 -0.68 1.36 0 0 Z " fill="#F12328" transform="translate(204,624)"/>
<path d="M0 0 C-0.125 1.8125 -0.125 1.8125 -1 4 C-4.0625 5.75 -4.0625 5.75 -7 7 C-7.33 6.01 -7.66 5.02 -8 4 C-2.25 0 -2.25 0 0 0 Z " fill="#F42223" transform="translate(219,618)"/>
<path d="M0 0 C1.32 0 2.64 0 4 0 C4 2.31 4 4.62 4 7 C3.01 7.495 3.01 7.495 2 8 C1.34 7.34 0.68 6.68 0 6 C0.66 5.67 1.32 5.34 2 5 C1.34 4.67 0.68 4.34 0 4 C0 2.68 0 1.36 0 0 Z " fill="#D71A20" transform="translate(220,610)"/>
<path d="M0 0 C1.32 0.33 2.64 0.66 4 1 C3.34 1 2.68 1 2 1 C2.66 2.98 3.32 4.96 4 7 C2.68 7 1.36 7 0 7 C0 5.68 0 4.36 0 3 C-0.66 2.67 -1.32 2.34 -2 2 C-1.34 2 -0.68 2 0 2 C0 1.34 0 0.68 0 0 Z " fill="#CE1F1F" transform="translate(209,605)"/>
<path d="M0 0 C0.33 0.66 0.66 1.32 1 2 C3.52733235 2.65555119 3.52733235 2.65555119 6 3 C2.5980513 5.09350689 -0.05272412 5.17942163 -4 5 C-3 2 -3 2 0 0 Z " fill="#D91C1E" transform="translate(200,634)"/>
<path d="M0 0 C2.475 0.99 2.475 0.99 5 2 C4.75 3.875 4.75 3.875 4 6 C1.9375 7.25 1.9375 7.25 0 8 C0 5.36 0 2.72 0 0 Z " fill="#DA1B1B" transform="translate(212,627)"/>
<path d="M0 0 C4.455 1.98 4.455 1.98 9 4 C8.34 4.66 7.68 5.32 7 6 C5.68 6 4.36 6 3 6 C3 5.34 3 4.68 3 4 C2.34 4 1.68 4 1 4 C0.67 2.68 0.34 1.36 0 0 Z " fill="#932023" transform="translate(147,597)"/>
<path d="M0 0 C0.66 0.33 1.32 0.66 2 1 C0.55746343 4.36591866 -1.33264727 6.51047079 -4 9 C-4 7.68 -4 6.36 -4 5 C-3.34 5 -2.68 5 -2 5 C-2.33 4.01 -2.66 3.02 -3 2 C-2.01 1.34 -1.02 0.68 0 0 Z " fill="#ECEBE6" transform="translate(815,520)"/>
<path d="M0 0 C-0.1875 1.8125 -0.1875 1.8125 -1 4 C-3.5625 5.75 -3.5625 5.75 -6 7 C-6.33 6.34 -6.66 5.68 -7 5 C-6.34 5 -5.68 5 -5 5 C-5 4.01 -5 3.02 -5 2 C-2 0 -2 0 0 0 Z " fill="#EF1E22" transform="translate(143,432)"/>
<path d="M0 0 C0 0.66 0 1.32 0 2 C-4.43076923 4.09230769 -4.43076923 4.09230769 -7.3125 3.625 C-7.869375 3.41875 -8.42625 3.2125 -9 3 C-9 2.34 -9 1.68 -9 1 C-5.92677456 0.08941469 -3.19902639 -0.08886184 0 0 Z " fill="#922A2D" transform="translate(226,597)"/>
<path d="M0 0 C3.14737182 0.69941596 6.02588876 1.76078698 9 3 C7.3125 4.1875 7.3125 4.1875 5 5 C2.25 3.75 2.25 3.75 0 2 C0 1.34 0 0.68 0 0 Z " fill="#EF1A2A" transform="translate(227,477)"/>
<path d="M0 0 C-0.33 0.99 -0.66 1.98 -1 3 C-2.65 3.33 -4.3 3.66 -6 4 C-6.66 2.68 -7.32 1.36 -8 0 C-4.71303767 -0.79953138 -3.28976808 -1.09658936 0 0 Z " fill="#D31A1E" transform="translate(253,441)"/>
<path d="M0 0 C0.8971875 0.5259375 0.8971875 0.5259375 1.8125 1.0625 C1.4825 1.7225 1.1525 2.3825 0.8125 3.0625 C-1.8275 2.7325 -4.4675 2.4025 -7.1875 2.0625 C-4.72093412 -0.40406588 -3.34389711 -1.43309876 0 0 Z " fill="#F81616" transform="translate(166.1875,422.9375)"/>
<path d="M0 0 C2 2 2 2 2 5 C0.02 5 -1.96 5 -4 5 C-2.25 1.125 -2.25 1.125 0 0 Z " fill="#F8292C" transform="translate(204,632)"/>
<path d="M0 0 C0.99 0.33 1.98 0.66 3 1 C3 2.65 3 4.3 3 6 C1.68 6 0.36 6 -1 6 C-1 5.01 -1 4.02 -1 3 C-1.66 2.67 -2.32 2.34 -3 2 C-2.01 2 -1.02 2 0 2 C0 1.34 0 0.68 0 0 Z " fill="#9E262C" transform="translate(157,602)"/>
<path d="M0 0 C2.46800047 1.15173355 4.04783565 2.04783565 6 4 C5.625 6.625 5.625 6.625 5 9 C3.79371992 6.66785852 2.8345262 4.50357861 2 2 C1.34 2 0.68 2 0 2 C0 1.34 0 0.68 0 0 Z " fill="#F43136" transform="translate(240,587)"/>
<path d="M0 0 C1.37432457 3.81756824 0.67975039 7.07255329 0 11 C-2 9 -2 9 -2.125 5.375 C-2.08375 4.26125 -2.0425 3.1475 -2 2 C-1.34 2 -0.68 2 0 2 C0 1.34 0 0.68 0 0 Z " fill="#F72325" transform="translate(89,506)"/>
<path d="M0 0 C0.66 0 1.32 0 2 0 C1.67 2.64 1.34 5.28 1 8 C0.34 8 -0.32 8 -1 8 C-1.625 5.125 -1.625 5.125 -2 2 C-1.34 1.34 -0.68 0.68 0 0 Z " fill="#F32121" transform="translate(129,500)"/>
<path d="M0 0 C2.75 0.25 2.75 0.25 5 1 C5 1.66 5 2.32 5 3 C0.545 3.495 0.545 3.495 -4 4 C-2.3125 1.9375 -2.3125 1.9375 0 0 Z " fill="#B02023" transform="translate(223,594)"/>
<path d="M0 0 C0.66 0 1.32 0 2 0 C2 2.64 2 5.28 2 8 C1.01 8 0.02 8 -1 8 C-0.67 5.36 -0.34 2.72 0 0 Z " fill="#F0272C" transform="translate(85,551)"/>
<path d="M0 0 C1.32 0.33 2.64 0.66 4 1 C3.01 1.33 2.02 1.66 1 2 C1.33 2.99 1.66 3.98 2 5 C0.35 4.67 -1.3 4.34 -3 4 C-3 3.34 -3 2.68 -3 2 C-2.01 2 -1.02 2 0 2 C0 1.34 0 0.68 0 0 Z " fill="#C9C7C6" transform="translate(621,523)"/>
<path d="M0 0 C0 1.32 0 2.64 0 4 C-1.65 4.33 -3.3 4.66 -5 5 C-5.33 4.01 -5.66 3.02 -6 2 C-2.25 0 -2.25 0 0 0 Z " fill="#DF2024" transform="translate(149,466)"/>
<path d="M0 0 C3.24271506 0.5590888 4.93057424 1.4132178 7 4 C7 4.66 7 5.32 7 6 C4.50638429 4.79618552 2.31856917 3.54571278 0 2 C0 1.34 0 0.68 0 0 Z " fill="#FB2331" transform="translate(243,435)"/>
<path d="M0 0 C2.64 0 5.28 0 8 0 C7.01 0.33 6.02 0.66 5 1 C5 1.66 5 2.32 5 3 C3.35 2.67 1.7 2.34 0 2 C0 1.34 0 0.68 0 0 Z " fill="#F81B25" transform="translate(184,631)"/>
<path d="M0 0 C2.475 0.495 2.475 0.495 5 1 C5 1.66 5 2.32 5 3 C3.35 3.33 1.7 3.66 0 4 C0 2.68 0 1.36 0 0 Z " fill="#E01827" transform="translate(196,628)"/>
<path d="M0 0 C1.32 0.33 2.64 0.66 4 1 C3.67 1.66 3.34 2.32 3 3 C3.99 3.33 4.98 3.66 6 4 C3.50907189 5.24546405 2.58919267 4.7767578 0 4 C0 2.68 0 1.36 0 0 Z " fill="#CD1D17" transform="translate(238,610)"/>
<path d="M0 0 C1.32 0.99 2.64 1.98 4 3 C2.02 4.32 0.04 5.64 -2 7 C-1.125 2.25 -1.125 2.25 0 0 Z " fill="#F82125" transform="translate(226,609)"/>
<path d="M0 0 C0.66 0 1.32 0 2 0 C2 2.64 2 5.28 2 8 C0.4375 6.8125 0.4375 6.8125 -1 5 C-0.6875 2.3125 -0.6875 2.3125 0 0 Z " fill="#FDFDFA" transform="translate(925,557)"/>
<path d="M0 0 C1.98 0 3.96 0 6 0 C6 0.99 6 1.98 6 3 C3.69 2.67 1.38 2.34 -1 2 C-0.67 1.34 -0.34 0.68 0 0 Z " fill="#EDECEB" transform="translate(581,541)"/>
<path d="M0 0 C-0.75 1.9375 -0.75 1.9375 -2 4 C-4.125 4.75 -4.125 4.75 -6 5 C-6 4.01 -6 3.02 -6 2 C-2.25 0 -2.25 0 0 0 Z " fill="#FC2023" transform="translate(162,454)"/>
<path d="M0 0 C0.66 0 1.32 0 2 0 C2 0.66 2 1.32 2 2 C2.66 2.33 3.32 2.66 4 3 C2.68 4.32 1.36 5.64 0 7 C0 4.69 0 2.38 0 0 Z " fill="#F91C23" transform="translate(249,452)"/>
</svg>
