<?xml version="1.0" encoding="UTF-8"?>
<svg version="1.1" xmlns="http://www.w3.org/2000/svg" width="180" height="180">
<path d="M0 0 C1.75 2.1875 1.75 2.1875 2.3125 5.3125 C1.49102387 10.97155779 -0.12101341 17.05851341 -4.25 21.1875 C-6.70703125 21.12109375 -6.70703125 21.12109375 -9.25 20.1875 C-10.76171875 17.97265625 -10.76171875 17.97265625 -11.9375 15.25 C-13.61005716 11.39550151 -13.61005716 11.39550151 -16.25 8.1875 C-21.32719477 6.53522325 -25.5509581 6.92688916 -30.375 9.125 C-41.17532699 15.24407071 -46.74738947 26.32104509 -50.125 37.9375 C-52.55516733 49.04059982 -52.77647882 60.98338061 -47.25 71.1875 C-43.57959513 75.94910632 -39.19121702 78.65172934 -33.15234375 79.47265625 C-22.92658268 79.88745785 -15.61660479 76.22812211 -7.6953125 70.02734375 C-5.58956673 68.44298871 -3.64389686 67.26196998 -1.25 66.1875 C-1.62942691 73.58632477 -6.19002444 79.55534237 -11.5 84.4375 C-20.26751466 91.32899624 -30.39182769 94.98972641 -41.6171875 93.84375 C-51.72795058 91.84538742 -60.2238121 87.53400963 -66.78125 79.4609375 C-74.39529037 67.67537501 -74.4857801 53.04976764 -72.0625 39.6875 C-68.68261746 24.14322886 -61.0938195 10.16297555 -47.875 0.8125 C-32.71150199 -8.35855035 -15.54225085 -8.66779374 0 0 Z " fill="#E23035" transform="translate(121.25,42.8125)"/>
</svg>
